<svg xmlns="http://www.w3.org/2000/svg" style="display: none;">

<symbol  version="1.1" id="wok" xmlns="http://www.w3.org/2000/svg" xmlns:xlink="http://www.w3.org/1999/xlink" 
	 viewBox="0 0 512 512" xml:space="preserve">
		<path d="M114.669,7.363v72.53c9.783-8.231,20.285-15.631,31.407-22.079V7.363H114.669z"/>
	
		<path d="M51.856,7.363v159.203c7.877-19.639,18.501-37.889,31.407-54.265V7.363H51.856z"/>
	
		<path d="M0,263.852c3.756,62.602,29.911,120.938,74.635,165.661c22.508,22.508,48.465,40.309,76.676,52.928v22.196h209.379
			v-22.196c28.211-12.618,54.168-30.42,76.676-52.928c44.723-44.724,70.879-103.059,74.635-165.661H0z"/>
	
		<path d="M255.999,127.756c-61.063,0-111.65,45.697-119.369,104.689h37.116c7.374-38.697,41.442-68.048,82.254-68.048
			c0.277,0,0.558,0.015,0.835,0.018c3.927-9.542,8.526-18.821,13.791-27.752c1.468-2.491,3-4.938,4.562-7.365
			C268.874,128.285,262.467,127.756,255.999,127.756z"/>
	
		<path d="M358.026,89.786c-49.06,31.724-80.747,84.72-85.635,142.659h36.774c5.222-50.136,35.176-94.48,79.339-118.147
			C379.235,105.121,369.024,96.896,358.026,89.786z"/>
	
		<path d="M409.479,138.931c-37.384,17.354-63.313,52.82-68.678,93.514h37.062c5.225-27.746,24.065-50.861,49.981-61.604
			C422.754,159.574,416.589,148.893,409.479,138.931z"/>
	
		<path d="M206.065,232.445h34.798c0.862-12.078,2.712-24.032,5.523-35.741C227.294,200.264,211.813,214.21,206.065,232.445z"/>
	
		<path d="M438.342,200.532c-13.526,6.146-23.751,17.777-28.156,31.912h33.596C442.876,221.518,441.038,210.854,438.342,200.532z"/>
	
		<path d="M256,59.707c-98.617,0-179.774,76.152-187.781,172.737h36.79C112.892,156.093,177.599,96.349,256,96.349
			c13.659,0,27.123,1.815,40.165,5.391c9.249-10.351,19.456-19.829,30.49-28.274C304.823,64.604,280.975,59.707,256,59.707z"/>
	
</symbol>

<symbol id="dessert" viewBox="0 0 16 16"  xmlns="http://www.w3.org/2000/svg">
<path d="M7 1V0H8C9.65685 0 11 1.34315 11 3C13.2091 3 15 4.79086 15 7H1C1 4.79086 2.79086 3 5 3C6.10457 3 7 2.10457 7 1Z" />
<path d="M3 15L2 9H14L13 15H3Z" />
</symbol>

<symbol id="drink" viewBox="0 0 32 32" version="1.1" xmlns="http://www.w3.org/2000/svg">
<path d="M23.055 8.906c0.557 0 1.008 0.451 1.008 1.008l-1.827 20.093c0 0.557-0.451 1.008-1.008 1.008h-10.457c-0.557 0-1.008-0.451-1.008-1.008l-1.825-20.093c0-0.557 0.451-1.008 1.008-1.008h9.010l1.066-5.436 4.839-2.485-0.348 1.298-3.592 1.801-0.938 4.822h4.072zM17.514 15.961h4.029l-1.134 13.038h-8.818l-1.134-13.038h6.029l1.259-6.047h-8.8l1.826 20.093h10.456l1.827-20.093h-4.282l-1.258 6.047z"></path>
</symbol>

<symbol id="soup"  version="1.1"  xmlns="http://www.w3.org/2000/svg" xmlns:xlink="http://www.w3.org/1999/xlink" 
	 viewBox="0 0 512 512" xml:space="preserve">

		<path d="M488.727,181.63H342.036h-92.332H23.273C10.42,181.63,0,192.05,0,204.903c0,24.194,3.376,47.614,9.677,69.817h24.256
			h24.584h394.966h24.584h24.256c6.301-22.202,9.677-45.622,9.677-69.817C512,192.05,501.58,181.63,488.727,181.63z"/>

		<path d="M499.72,62.643c-6.481-11.1-20.73-14.845-31.832-8.367l-138.442,80.809h92.332l69.575-40.609
			C502.452,87.994,506.199,73.744,499.72,62.643z"/>

		<path d="M483.992,321.265h-26.407h-27.513H81.928H54.415H28.008c21.408,41.775,53.969,76.916,93.719,101.505
			c-3.348,4.032-5.364,9.208-5.364,14.859c0,12.853,10.42,23.273,23.273,23.273H256h116.364c12.853,0,23.273-10.42,23.273-23.273
			c0-5.651-2.015-10.826-5.364-14.859C430.023,398.181,462.584,363.039,483.992,321.265z"/>

</symbol>

<symbol id="instagram" viewBox="0 0 32 32" version="1.1" xmlns="http://www.w3.org/2000/svg">
<path d="M25.805 7.996c0 0 0 0.001 0 0.001 0 0.994-0.806 1.799-1.799 1.799s-1.799-0.806-1.799-1.799c0-0.994 0.806-1.799 1.799-1.799v0c0.993 0.001 1.798 0.805 1.799 1.798v0zM16 20.999c-2.761 0-4.999-2.238-4.999-4.999s2.238-4.999 4.999-4.999c2.761 0 4.999 2.238 4.999 4.999v0c0 0 0 0.001 0 0.001 0 2.76-2.237 4.997-4.997 4.997-0 0-0.001 0-0.001 0h0zM16 8.3c0 0 0 0-0 0-4.253 0-7.7 3.448-7.7 7.7s3.448 7.7 7.7 7.7c4.253 0 7.7-3.448 7.7-7.7v0c0-0 0-0 0-0.001 0-4.252-3.447-7.7-7.7-7.7-0 0-0 0-0.001 0h0zM16 3.704c4.003 0 4.48 0.020 6.061 0.089 1.003 0.012 1.957 0.202 2.84 0.538l-0.057-0.019c1.314 0.512 2.334 1.532 2.835 2.812l0.012 0.034c0.316 0.826 0.504 1.781 0.516 2.778l0 0.005c0.071 1.582 0.087 2.057 0.087 6.061s-0.019 4.48-0.092 6.061c-0.019 1.004-0.21 1.958-0.545 2.841l0.019-0.058c-0.258 0.676-0.64 1.252-1.123 1.726l-0.001 0.001c-0.473 0.484-1.049 0.866-1.692 1.109l-0.032 0.011c-0.829 0.316-1.787 0.504-2.788 0.516l-0.005 0c-1.592 0.071-2.061 0.087-6.072 0.087-4.013 0-4.481-0.019-6.072-0.092-1.008-0.019-1.966-0.21-2.853-0.545l0.059 0.019c-0.676-0.254-1.252-0.637-1.722-1.122l-0.001-0.001c-0.489-0.47-0.873-1.047-1.114-1.693l-0.010-0.031c-0.315-0.828-0.506-1.785-0.525-2.785l-0-0.008c-0.056-1.575-0.076-2.061-0.076-6.053 0-3.994 0.020-4.481 0.076-6.075 0.019-1.007 0.209-1.964 0.544-2.85l-0.019 0.059c0.247-0.679 0.632-1.257 1.123-1.724l0.002-0.002c0.468-0.492 1.045-0.875 1.692-1.112l0.031-0.010c0.823-0.318 1.774-0.509 2.768-0.526l0.007-0c1.593-0.056 2.062-0.075 6.072-0.075zM16 1.004c-4.074 0-4.582 0.019-6.182 0.090-1.315 0.028-2.562 0.282-3.716 0.723l0.076-0.025c-1.040 0.397-1.926 0.986-2.656 1.728l-0.001 0.001c-0.745 0.73-1.333 1.617-1.713 2.607l-0.017 0.050c-0.416 1.078-0.67 2.326-0.697 3.628l-0 0.012c-0.075 1.6-0.090 2.108-0.090 6.182s0.019 4.582 0.090 6.182c0.028 1.315 0.282 2.562 0.723 3.716l-0.025-0.076c0.796 2.021 2.365 3.59 4.334 4.368l0.052 0.018c1.078 0.415 2.326 0.669 3.628 0.697l0.012 0c1.6 0.075 2.108 0.090 6.182 0.090s4.582-0.019 6.182-0.090c1.315-0.029 2.562-0.282 3.716-0.723l-0.076 0.026c2.021-0.796 3.59-2.365 4.368-4.334l0.018-0.052c0.416-1.078 0.669-2.326 0.697-3.628l0-0.012c0.075-1.6 0.090-2.108 0.090-6.182s-0.019-4.582-0.090-6.182c-0.029-1.315-0.282-2.562-0.723-3.716l0.026 0.076c-0.398-1.040-0.986-1.926-1.729-2.656l-0.001-0.001c-0.73-0.745-1.617-1.333-2.607-1.713l-0.050-0.017c-1.078-0.416-2.326-0.67-3.628-0.697l-0.012-0c-1.6-0.075-2.108-0.090-6.182-0.090z"></path>
</symbol>

<symbol version="1.1" id="gunkan" xmlns="http://www.w3.org/2000/svg" xmlns:xlink="http://www.w3.org/1999/xlink" x="0px" y="0px"
	 viewBox="0 0 64 64" style="enable-background:new 0 0 64 64;" xml:space="preserve">
<path d="M21.5361328,30.4130859c0,2.7207031,8.015625,5.7631836,18.7441406,5.7631836
	c10.7002563,0,18.6981812-3.0263672,18.7402344-5.7415771v-0.0245361c0-0.0031128,0.00177-0.0057373,0.00177-0.0088501
	c-0.0228882-2.7171631-8.0288696-5.7509155-18.7420044-5.7509155
	C29.5517578,24.6503906,21.5361328,27.6928711,21.5361328,30.4130859z M42.7542114,28.6693115
	c1.1586914-1.0336914,2.6188965-1.602417,4.151062-1.602417l0.1728516,0.0053711
	c0.2578125,0.0083008,0.421875-0.0229492,0.5537109-0.0844727l1.1494141-0.5332031
	c0.5205078-0.2421875,1.1162109-0.3266602,1.6777344-0.2382812l1.0175781,0.1474609
	c0.9580078,0.1352539,1.7949219,0.7416992,2.234375,1.6210938l0.0556641,0.1201172
	c0.1826172,0.362793,0.2822266,0.7978516,0.2822266,1.2636719c0,0.5629883-0.1611328,1.1186523-0.4658203,1.6074219
	c-0.8994141,1.3852539-2.1582031,2.496582-3.6503906,3.2290039l-0.3261719,0.1586914
	c-2.2626953,1.0908203-4.6738281,1.6430664-7.1708984,1.6430664c-0.9570312,0-1.9111328-0.0834961-2.8359375-0.2480469
	c-0.8681641-0.1479492-1.6230469-0.6816406-2.0644531-1.4624023c-0.1878662-0.3336792-0.2862549-0.6990967-0.3336792-1.0699463
	c-1.4588013,0.7286987-3.1661377,0.8647461-4.7219849,0.3575439l-0.4423828-0.1445312
	c-0.5947266-0.1938477-1.2373047-0.1674805-1.8125,0.0712891v0.0004883l-0.5966797,0.2485352
	c-0.3691406,0.1533203-0.7558594,0.2294922-1.140625,0.2294922c-0.6005859,0-1.1953125-0.1855469-1.7050781-0.546875
	c-0.8369141-0.5932617-1.2998047-1.5585938-1.2402344-2.5825195c0.0517578-0.8911133,0.4960938-1.7021484,1.2197266-2.2246094
	c2.8173828-2.03125,6.140625-3.1044922,9.6113281-3.1044922h0.3574219c1.6513672,0,3.2714844,0.4501953,4.6855469,1.3027344
	C42.0948486,27.2427979,42.5687866,27.913269,42.7542114,28.6693115z"/>
<path d="M23.7197266,19.6157227c10.6719971,0,18.6524658-3.0102539,18.7363281-5.7194214v-0.0427856
	c0-0.0073242,0.0039673-0.0134277,0.0041504-0.0206909c-0.0392456-2.7154541-8.0383301-5.742981-18.7404785-5.742981
	c-10.7285156,0-18.7441406,3.0424805-18.7441406,5.7631836C4.9755859,16.5732422,12.9912109,19.6157227,23.7197266,19.6157227z
	 M10.2021484,12.074707c2.8154297-2.0307617,6.1386719-3.1044922,9.6103516-3.1044922h0.3574219
	c1.6513672,0,3.2714844,0.4506836,4.6865234,1.3032227c0.6782837,0.4086914,1.1520386,1.0794067,1.3373413,1.8359375
	c1.1571655-1.0337524,2.6184692-1.6030273,4.1509399-1.6030273l0.1728516,0.0053711
	c0.2587891,0.0092773,0.421875-0.0229492,0.5537109-0.0844727l1.1503906-0.5327148
	c0.5195312-0.2407227,1.1171875-0.324707,1.6767578-0.2387695l1.0175781,0.1479492
	c0.9570312,0.1347656,1.7939453,0.7402344,2.234375,1.6191406l0.0595703,0.1298828
	c0.1787109,0.3544922,0.2783203,0.7895508,0.2783203,1.2553711c0,0.5625-0.1611328,1.1181641-0.4658203,1.6074219
	c-0.8984375,1.3847656-2.1572266,2.4960938-3.6503906,3.2290039l-0.3251953,0.1586914
	c-2.2626953,1.0908203-4.6738281,1.6430664-7.171875,1.6430664c-0.9560547,0-1.9101562-0.0830078-2.8359375-0.2470703
	c-0.8701172-0.1494141-1.6240234-0.6835938-2.0644531-1.4638672c-0.1880493-0.3335571-0.286377-0.6987305-0.3338013-1.0692749
	c-1.4586182,0.7295532-3.1651001,0.8654785-4.7218628,0.3573608l-0.4423828-0.1445312
	c-0.5947266-0.1938477-1.2373047-0.168457-1.8125,0.0712891l-0.5957031,0.2485352
	c-0.3691406,0.1538086-0.7568359,0.2294922-1.140625,0.2294922c-0.6015625,0-1.1962891-0.1850586-1.7070312-0.546875
	c-0.8359375-0.5932617-1.2988281-1.5585938-1.2392578-2.5820312C9.0332031,13.4077148,9.4785156,12.597168,10.2021484,12.074707z"/>
<path d="M19.5361328,39.1895142v-8.7793579c0-0.0004883,0.0003052-0.0009766,0.0003052-0.0014648
	c0.0062256-5.0391846,10.6901245-7.7583008,20.7438354-7.7583008c0.7234497,0,1.4500122,0.0157471,2.1757812,0.0437622v-5.3609619
	c-3.5619507,2.8004761-11.3180542,4.2825317-18.7363281,4.2825317c-7.423645,0-15.18573-1.4841919-18.7441406-4.2886353v16.2515869
	c0,0.001709,0.0009766,0.0031128,0.0009766,0.0048218C4.9765625,35.8132935,10.5189209,38.5137939,19.5361328,39.1895142z"/>
<path d="M22.6104126,16.4360962c0.0151367,0.1008301,0.0441284,0.2063599,0.1063843,0.3168335
	c0.1435547,0.2543945,0.3867188,0.4277344,0.6660156,0.4760742c0.8164062,0.1445312,1.6523438,0.2172852,2.4921875,0.2172852
	c2.1943359,0,4.3134766-0.4853516,6.2988281-1.4428711l0.3193359-0.1557617
	c1.1669922-0.5722656,2.1503906-1.4389648,2.8417969-2.5053711c0.0966797-0.15625,0.1533203-0.3461914,0.1533203-0.5341797
	c0-0.1518555-0.0283203-0.2856445-0.0849609-0.3979492l-0.0585938-0.1293945
	c-0.1298828-0.2578125-0.3964844-0.4526367-0.7109375-0.4970703l-1.0332031-0.1499023
	c-0.1796875-0.027832-0.3740234-0.0004883-0.5380859,0.0751953l-1.1455078,0.5302734
	c-0.4072266,0.1923828-0.8730469,0.2963867-1.3583984,0.2749023l-0.1464844-0.0048828c-0.0039062,0-0.0078125,0-0.0117188,0
	c-1.1523438,0-2.1894531,0.4223633-2.9882812,1.1870117l-0.3242188,0.3164062
	c-0.4998169,0.4816284-1.1102295,0.8359985-1.7744141,1.0540771c-0.1054077,0.0967407-0.2029419,0.2011719-0.3232422,0.2828369
	l-0.8623047,0.5849609C23.6766968,16.2401733,23.1536865,16.4093628,22.6104126,16.4360962z"/>
<path d="M11.3789062,15.25c0.1298828,0.0922852,0.4765625,0.2885742,0.9199219,0.1025391l0.5957031-0.2480469
	c1.0166016-0.4243164,2.1533203-0.4697266,3.203125-0.1269531l0.4423828,0.1445312
	c1.0976562,0.359375,2.3115234,0.2495117,3.3291016-0.3007812c0.4150391-0.2246094,0.8837891-0.3476562,1.3554688-0.355957
	l0.6005859-0.0100098c0.0046387,0.0001831,0.0089111-0.0004272,0.0135498-0.0002441l0.6466064-0.0107422
	c0.1855469-0.003418,0.3652344-0.0600586,0.5195312-0.1650391l0.8623047-0.5849609
	c0.2617188-0.1772461,0.4179688-0.4726562,0.4179688-0.7900391v-0.1000977c0-0.3330078-0.1767578-0.6464844-0.4609375-0.8178711
	c-1.1035156-0.6645508-2.3671875-1.0161133-3.6542969-1.0161133H19.8125c-3.0488281,0-5.9677734,0.9428711-8.4404297,2.7265625
	c-0.2333984,0.168457-0.3779297,0.4306641-0.3945312,0.71875C10.9501953,14.8925781,11.2490234,15.1582031,11.3789062,15.25z"/>
<path d="M36.3730469,27.5307617c-3.0488281,0-5.9667969,0.9428711-8.4404297,2.7260742
	c-0.2333984,0.1689453-0.3779297,0.4311523-0.3945312,0.7192383c-0.0273438,0.4770508,0.2714844,0.7426758,0.4013672,0.8349609
	c0.1308594,0.0922852,0.4833984,0.2856445,0.9189453,0.1025391l0.5966797-0.2490234
	c1.0175781-0.4228516,2.1552734-0.4672852,3.203125-0.1264648l0.4423828,0.1445312
	c1.0976562,0.3579102,2.3115234,0.2490234,3.3291016-0.3007812c0.4150391-0.2246094,0.8837891-0.3476562,1.3554688-0.355957
	l0.6005249-0.0102539c0.0029297,0.0001221,0.0058594-0.0002441,0.0087891-0.0001221l0.6514282-0.0111084
	c0.1855469-0.0029297,0.3652344-0.0600586,0.5195312-0.1645508l0.8613281-0.5844727
	c0.2626953-0.1782227,0.4189453-0.4731445,0.4189453-0.7905273v-0.1000977c0-0.3330078-0.1767578-0.6464844-0.4619141-0.8183594
	c-1.1025391-0.6645508-2.3662109-1.015625-3.6533203-1.015625H36.3730469z"/>
<path d="M59.0205078,33.8904419c-3.5601196,2.8026123-11.3192749,4.2858276-18.7402344,4.2858276
	c-7.423645,0-15.18573-1.4842529-18.7441406-4.2888794V50.144043c0,2.7216797,8.015625,5.7661133,18.7421875,5.7661133
	s18.7421875-3.0444336,18.7421875-5.7661133V33.8904419z"/>
<path d="M39.1708984,32.9961548c0.0151978,0.1010132,0.0441284,0.2067871,0.1064453,0.3173218
	c0.1435547,0.2543945,0.3857422,0.4277344,0.6650391,0.4750977c2.9501953,0.5253906,6.046875,0.1000977,8.7919922-1.2250977
	l0.3203125-0.1557617c1.1640625-0.5712891,2.1474609-1.4384766,2.8408203-2.5058594
	c0.0966797-0.1557617,0.1533203-0.3452148,0.1533203-0.5332031c0-0.1518555-0.0283203-0.2856445-0.0849609-0.3979492
	l-0.0556641-0.1210938c-0.1337891-0.2666016-0.3994141-0.4614258-0.7148438-0.5058594l-1.0322266-0.1494141
	c-0.1816406-0.027832-0.375,0-0.5390625,0.0751953l-1.1435547,0.5302734
	c-0.4082031,0.1923828-0.8759766,0.2949219-1.359375,0.2749023l-0.1464844-0.0048828c-0.0039062,0-0.0078125,0-0.0117188,0
	c-1.1523438,0-2.1894531,0.421875-2.9882812,1.1870117l-0.3232422,0.315918
	c-0.5009155,0.4822998-1.1118164,0.836853-1.7763672,1.0548706c-0.1057129,0.0968628-0.2034912,0.2012939-0.3242188,0.28302
	l-0.8603516,0.5839844C40.2374878,32.8009644,39.7139893,32.9700317,39.1708984,32.9961548z"/>
</symbol>

<symbol version="1.1" id="map" xmlns="http://www.w3.org/2000/svg" xmlns:xlink="http://www.w3.org/1999/xlink" x="0px" y="0px"
	 viewBox="0 0 32 32" style="enable-background:new 0 0 32 32;" xml:space="preserve">
<path d="M16,0C9.2,0,3.7,5.5,3.7,12.3c0,10.3,11.1,19.1,11.6,19.4c0.2,0.1,0.5,0.2,0.7,0.2s0.5-0.1,0.7-0.2
	c0.5-0.4,11.6-9.1,11.6-19.4C28.3,5.5,22.8,0,16,0z M16,17.2c-2.7,0-4.9-2.2-4.9-4.9s2.2-4.9,4.9-4.9s4.9,2.2,4.9,4.9
	S18.7,17.2,16,17.2z"/>
</symbol>

<symbol version="1.1" id="roll" xmlns="http://www.w3.org/2000/svg" xmlns:xlink="http://www.w3.org/1999/xlink" x="0px" y="0px"
	 viewBox="0 0 64 64" style="enable-background:new 0 0 64 64;" xml:space="preserve">
<ellipse cx="44.5185547" cy="28.7089844" rx="5.5952148" ry="1.7192383"/>
<path d="M19.140625,39.8574219c3.0932007,0,6.0288696-0.3146362,8.5834961-0.8866577V28.6665039
	c0-0.0015869,0.0009155-0.0029297,0.0009155-0.0045166c0.0054932-2.3459473,2.7199097-4.0908203,6.5479126-5.1831665v-1.1029053
	c-3.0738525,2.1914062-9.2263794,3.3530884-15.1323242,3.3530884c-5.9094849,0-12.06604-1.1630859-15.1381836-3.3571167V35.328125
	c0,0.0020752-0.0011597,0.0037842-0.0011597,0.0058594C4.0148315,37.2252197,9.770813,39.8574219,19.140625,39.8574219z"/>
<path d="M59.996582,44.7958984V31.8418579c-3.0732422,2.1925659-9.2270508,3.3549194-15.1342773,3.3549194
	c-5.9094849,0-12.06604-1.163269-15.1381836-3.3574829v12.956604c0,1.8916016,5.7583008,4.5302734,15.1362305,4.5302734
	S59.996582,46.6875,59.996582,44.7958984z"/>
<ellipse cx="18.796875" cy="19.2412109" rx="5.5952148" ry="1.7192383"/>
<path d="M59.996582,28.6665039c0-0.0027466,0.0015259-0.0050049,0.0015259-0.0076904
	c-0.0200806-1.8898926-5.7732544-4.5172119-15.1358032-4.5172119c-9.3789062,0-15.1381836,2.6367188-15.1381836,4.5273438
	s5.7592773,4.527832,15.1381836,4.527832c9.348999,0,15.0976562-2.6200562,15.1342773-4.5093384V28.6665039z M44.5185547,32.4282227
	c-3.7744141,0-7.5952148-1.2773438-7.5952148-3.7192383s3.8208008-3.7192383,7.5952148-3.7192383
	s7.5952148,1.2773438,7.5952148,3.7192383S48.2929688,32.4282227,44.5185547,32.4282227z"/>
<path d="M19.140625,23.7290039c9.3789062,0,15.1376953-2.6367188,15.1376953-4.5273438s-5.7587891-4.527832-15.1376953-4.527832
	s-15.1381836,2.637207-15.1381836,4.527832S9.7617188,23.7290039,19.140625,23.7290039z M18.796875,15.5219727
	c3.7744141,0,7.5952148,1.2773438,7.5952148,3.7192383s-3.8208008,3.7192383-7.5952148,3.7192383
	s-7.5952148-1.2773438-7.5952148-3.7192383S15.0224609,15.5219727,18.796875,15.5219727z"/>
</symbol>

<symbol version="1.1" id="salad" xmlns="http://www.w3.org/2000/svg" xmlns:xlink="http://www.w3.org/1999/xlink" x="0px" y="0px"
	 viewBox="0 0 64 64" style="enable-background:new 0 0 64 64;" xml:space="preserve">
<path d="M50.7436523,20.0771484c0.8676758-0.234375,1.4731445-1.0229492,1.4731445-1.9179688
	c0-0.4755859-0.1606445-0.9145508-0.4638672-1.2695312c-0.3857422-0.4628906-0.9428711-0.7226562-1.5366211-0.7226562
	c-1.0986328,0-1.9921875,0.8935547-1.9921875,1.9921875c0,0.2631836,0.0532227,0.5336914,0.1533203,0.78125
	c0.1328125,0.3276367,0.0830078,0.7001953-0.1313477,0.9814453c-0.2138672,0.2807617-0.5566406,0.434082-0.9106445,0.387207
	c-0.0112305-0.0009766-0.0947266-0.0126953-0.1054688-0.0141602c-0.0024414,0-0.0053711,0-0.0078125,0
	c-1.1054688,0-1.9985352,0.8955078-1.9985352,1.9960938c0.0014648,0.0107422,0.019043,0.1416016,0.0200195,0.1523438
	c0.03125,0.3144531-0.0878906,0.625-0.3212891,0.8378906c-0.2338867,0.2128906-0.5571289,0.3012695-0.8637695,0.2431641
	c-0.1782227-0.034668-0.4101562-0.0742188-0.6230469-0.0742188c-0.9116211,0-1.7382812,0.4291992-2.2670898,1.1782227
	c-0.1943359,0.265625-0.3310547,0.5483398-0.4150391,0.8535156c-0.0712891,0.2485352-0.105957,0.4990234-0.105957,0.7568359
	c0,0.0336914,0.0145264,0.0782471,0.0165405,0.1134644c2.4425049,0.7907715,4.5444946,2.3186646,6.0578003,4.3143921
	c0.1500854-0.0876465,0.3217163-0.1392822,0.5023193-0.1392822c1.5332031,0,2.7802734-1.2509766,2.7802734-2.7880859
	c0-0.1005859-0.0073242-0.2006836-0.0141602-0.2944336c-0.0390625-0.3681641-0.1674805-0.7485352-0.3798828-1.1015625
	c-0.1376953-0.2299805-0.1777344-0.5053711-0.1108398-0.7651367c0.0668945-0.2592773,0.2353516-0.480957,0.4672852-0.6152344
	c0.6323242-0.3662109,1.0097656-1.0112305,1.0097656-1.7246094c0-0.5581055-0.2299805-1.0761719-0.6474609-1.4580078
	c-0.269043-0.246582-0.3828125-0.6201172-0.2963867-0.9746094S50.3916016,20.171875,50.7436523,20.0771484z"/>
<path d="M42.1177979,35.9876709c0.4606323-0.0916748,0.9077148-0.1870728,1.331543-0.2855225
	c-1.1612549-3.180542-4.5267334-5.1472168-7.9390869-4.4770508c-0.022522,0.0043945-0.0438843,0.012085-0.0663452,0.0167236
	c-0.0015259,0.0006714-0.0032959,0.0006104-0.0048218,0.0012207c-1.8369751,0.380188-3.4326782,1.4877319-4.4473267,3.0636597
	c0.1901245,0.8704224,0.3041382,1.755188,0.3041382,2.6430054c0,0.0750122-0.0118408,0.1467896-0.0132446,0.2216187
	c0.0021362-0.000061,0.0042114-0.0001831,0.0063477-0.0002441c0.3878784-2.2952881,2.1534424-4.1675415,4.4898071-4.6227417
	C38.4666138,32.0195923,41.1176758,33.5234985,42.1177979,35.9876709z"/>
<path d="M48.7529297,32.2763672c0.1713867,0.4907227,0.2592773,1.0058594,0.2592773,1.5307617
	c0,0.0350342-0.0078735,0.067688-0.008606,0.1025391c2.2373657-1.0236206,3.5403442-2.1838989,3.5403442-3.2202148
	c0-0.4671021-0.2713013-0.9696655-0.7747192-1.4728394C51.3030396,30.6521606,50.1789551,31.7930298,48.7529297,32.2763672z"/>
<path d="M55.6049194,9.4946289c-0.0690918,0.0022583-0.1342773-0.0001221-0.2011108-0.0118408
	c-0.0611572-0.0107422-0.1174927-0.0265503-0.1748657-0.0480957c-0.0634766-0.0235596-0.1213379-0.0510864-0.178772-0.086792
	c-0.0515137-0.0321045-0.0967407-0.0675049-0.1416626-0.1083374c-0.0492554-0.0446167-0.0923462-0.0915527-0.1323242-0.1460571
	c-0.0388184-0.0526123-0.0689697-0.1079102-0.0971069-0.1681519c-0.0158081-0.0338745-0.0428467-0.059021-0.0550537-0.0952759
	l-1.1298828-3.3525391l-0.8955078,1.078125c-0.9755859,1.1865234-1.5146484,2.6865234-1.5146484,4.2192383v3.4871826
	c0.5884399,0.1300659,1.1350708,0.3953857,1.6067505,0.769165l3.0221558-1.5175781
	c1.3779297-0.6958008,2.4746094-1.8500977,3.0859375-3.2490234l0.5649414-1.2827148l-3.6513672,0.519043
	C55.675415,9.5062256,55.6414185,9.4935303,55.6049194,9.4946289z"/>
<path d="M23.0839844,54.8144531c-1.7890625,0-3.5540771-0.2381592-5.2695312-0.6901855V59h21.2587891v-4.8756714
	c-1.7149658,0.4519653-3.4802246,0.6901245-5.2695312,0.6901245H23.0839844z"/>
<path d="M36.1635742,34.5107422c-1.359375,0.2650146-2.4091797,1.2763672-2.7915039,2.5579834
	c2.3591919-0.1424561,4.5991211-0.3823242,6.6939697-0.7171021C39.3135986,34.9949341,37.7542725,34.1989136,36.1635742,34.5107422z
	"/>
<path d="M11.5629883,41.6303711c-1.5268555-0.3989258-2.9267578-0.8725586-4.15625-1.4072266
	c-0.946167-0.4088135-1.7471313-0.8457031-2.430481-1.303894c1.5825195,5.9830322,6.0804443,10.8925781,12.1555786,12.9244995
	c1.9165039,0.644043,3.9189453,0.9707031,5.9521484,0.9707031h10.7197266c2.0332031,0,4.0356445-0.3266602,5.9506836-0.9702148
	c6.0574341-2.026001,10.5432129-6.9082031,12.1365356-12.9039917c-4.5354614,3.0418701-14.2020874,4.6178589-23.4495239,4.6178589
	C22.2128906,43.5581055,16.21875,42.8735352,11.5629883,41.6303711z M15.2861328,45.5283203l-0.315918,0.3076172l0.074707,0.4345703
	c0.0639648,0.3754883-0.090332,0.7543945-0.3979492,0.9780273c-0.1743164,0.1264648-0.3808594,0.190918-0.5878906,0.190918
	c-0.1591797,0-0.3188477-0.0380859-0.465332-0.1147461l-0.3901367-0.2050781l-0.3901367,0.2050781
	c-0.3359375,0.1772461-0.7436523,0.1479492-1.0532227-0.0761719c-0.3076172-0.2236328-0.4619141-0.6025391-0.3979492-0.9780273
	l0.074707-0.4345703l-0.315918-0.3076172c-0.2729492-0.265625-0.3710938-0.6630859-0.253418-1.0253906
	c0.1176758-0.3618164,0.4306641-0.6259766,0.8071289-0.6806641l0.4370117-0.0634766l0.1948242-0.3950195
	c0.3369141-0.6826172,1.4570312-0.6826172,1.7939453,0l0.1948242,0.3950195l0.4370117,0.0634766
	c0.3764648,0.0546875,0.6894531,0.3188477,0.8071289,0.6806641C15.6572266,44.8652344,15.559082,45.2626953,15.2861328,45.5283203z
	 M23.7641602,49.4780273l-0.315918,0.3081055l0.074707,0.4355469c0.0639648,0.375-0.090332,0.7539062-0.3984375,0.9775391
	c-0.3076172,0.2241211-0.7158203,0.2539062-1.0532227,0.0756836l-0.3896484-0.2050781l-0.390625,0.2055664
	c-0.1459961,0.0766602-0.3061523,0.1147461-0.465332,0.1147461c-0.2070312,0-0.4135742-0.0644531-0.5878906-0.190918
	c-0.3081055-0.2236328-0.4619141-0.6030273-0.3974609-0.9780273l0.0742188-0.4350586l-0.3154297-0.3076172
	c-0.2729492-0.265625-0.3710938-0.6630859-0.253418-1.0253906c0.1176758-0.3618164,0.4306641-0.6259766,0.8071289-0.6806641
	l0.4370117-0.0634766l0.1948242-0.3950195c0.3369141-0.6826172,1.4570312-0.6826172,1.7939453,0l0.1948242,0.3950195
	l0.4365234,0.0634766c0.3764648,0.0551758,0.6894531,0.3188477,0.8071289,0.6806641S24.0366211,49.2124023,23.7641602,49.4780273z
	 M42.7119141,44.0063477c0.1176758-0.3618164,0.4306641-0.6254883,0.8071289-0.6806641l0.4365234-0.0634766l0.1948242-0.3950195
	c0.3364258-0.6821289,1.4560547-0.6835938,1.793457-0.0004883l0.1958008,0.3955078l0.4365234,0.0634766
	c0.3764648,0.0551758,0.6894531,0.3188477,0.8071289,0.6806641c0.1176758,0.3623047,0.0195312,0.7597656-0.253418,1.0253906
	l-0.3154297,0.3076172l0.0742188,0.434082c0.0644531,0.3754883-0.0893555,0.7543945-0.3974609,0.9785156
	c-0.3076172,0.2236328-0.7158203,0.2529297-1.0532227,0.0761719l-0.390625-0.2050781l-0.3901367,0.2050781
	c-0.1464844,0.0766602-0.3061523,0.1147461-0.465332,0.1147461c-0.2075195,0-0.4135742-0.0644531-0.5878906-0.190918
	c-0.3081055-0.2241211-0.4619141-0.6030273-0.3974609-0.9785156l0.0742188-0.434082l-0.3154297-0.3076172
	C42.6923828,44.7661133,42.5942383,44.3686523,42.7119141,44.0063477z M31.7163086,48.7509766
	c0.1176758-0.3618164,0.4306641-0.6254883,0.8071289-0.6806641l0.4365234-0.0634766l0.1958008-0.3959961
	c0.168457-0.3413086,0.5161133-0.5571289,0.8964844-0.5571289c0.3808594,0,0.7285156,0.2163086,0.8969727,0.5576172
	l0.1948242,0.3955078l0.4365234,0.0634766c0.3764648,0.0551758,0.6894531,0.3188477,0.8071289,0.6806641
	c0.1176758,0.3623047,0.0195312,0.7597656-0.253418,1.0253906l-0.3154297,0.3076172l0.0742188,0.434082
	c0.0644531,0.3754883-0.0893555,0.7543945-0.3974609,0.9785156c-0.1743164,0.1264648-0.3803711,0.190918-0.5878906,0.190918
	c-0.1591797,0-0.3188477-0.0380859-0.465332-0.1147461l-0.3901367-0.2050781l-0.390625,0.2050781
	c-0.3369141,0.1767578-0.7451172,0.1474609-1.0532227-0.0761719c-0.3081055-0.2241211-0.4619141-0.6030273-0.3974609-0.9785156
	l0.0742188-0.434082l-0.3154297-0.3076172C31.6967773,49.5107422,31.5986328,49.1132812,31.7163086,48.7509766z"/>
<path d="M7.0631714,33.5183105c0.4577026-1.5844727,1.2234497-3.0758667,2.2771606-4.3654785
	c0.019043-0.0283203,0.0390625-0.0551758,0.0605469-0.081543c0.0177002-0.0214233,0.0392456-0.0389404,0.0570679-0.0602417
	c0.0050049-0.005127,0.0093994-0.0103149,0.0145264-0.0153198c1.4180908-1.6889648,3.2557373-2.9646606,5.3287964-3.6970215
	c0.0076294-0.0033569,0.0148926-0.0064697,0.022583-0.0095825c0.017395-0.0061035,0.0332642-0.0155029,0.0506592-0.0215454
	c0.0214844-0.0073242,0.0429688-0.0136719,0.0649414-0.0200195c0.6854248-0.2392578,1.4057007-0.3937378,2.1379395-0.5033569
	c0.1174927-0.380249,0.2509766-0.7525024,0.404541-1.1151123c0.0106201-0.0705566,0.0169678-0.1400146,0.0421753-0.206543
	c0.022644-0.0598145,0.0587769-0.1091919,0.0919189-0.1629028c0.0335083-0.0548096,0.0616455-0.1105347,0.1056519-0.1584473
	c0.295105-0.6217651,0.6430664-1.2171631,1.0387573-1.7836914c-1.8985596-0.8128052-4.0093994-1.0462646-6.0656128-0.6446533
	c-4.7202148,0.9223633-8.2294922,5.0810547-8.3457031,9.8886719c-0.0092773,0.1279297-0.0078125,0.1904297-0.0078125,0.2529297
	v0.0140991C4.3977661,31.6639404,5.3787231,32.6282959,7.0631714,33.5183105z"/>
<path d="M27.5131836,21.5200195c-1.4838867,0.2910156-2.8032227,1.0405273-3.8149414,2.1674805
	c-0.1240234,0.1254883-0.1953125,0.2114258-0.2670898,0.2963867c-0.293457,0.3634033-0.548584,0.7658691-0.7659912,1.1861572
	c0.4307251,0.1366577,0.8567505,0.2965698,1.2747803,0.4831543c0.0530396-0.0949707,0.0965576-0.1921387,0.1557617-0.2855225
	c0.8432617-1.3242188,2.1513672-2.2197266,3.684082-2.5244141c2.6383667-0.513916,5.213562,0.87854,6.2666016,3.2463989
	c0.1468506-0.0341797,0.286499-0.0838623,0.4370117-0.1126099c0.3081055-0.0603027,0.6102295-0.0997925,0.9110107-0.1362305
	c-0.2515259-0.638916-0.5894775-1.2416382-1.0325928-1.7919922C32.7260742,21.9770508,30.1044922,21.0087891,27.5131836,21.5200195z
	"/>
<path d="M46.6784668,34.8082886c-1.062439-3.140564-3.5853882-5.6382446-6.7922363-6.616394
	c-1.0341797-0.3164062-2.0898438-0.4682617-3.1489258-0.4423828c-0.6025391,0-1.2260742,0.0644531-1.8740234,0.190918
	c-0.3950195,0.0756836-0.7685547,0.171875-1.1464844,0.2958984c-1.5534058,0.4917603-2.9472656,1.3610229-4.1052856,2.5
	c0.2384033,0.4065552,0.4544067,0.8244019,0.6436157,1.2549438c1.2831421-1.392395,2.9813232-2.3585815,4.8693848-2.7285767
	c4.4523315-0.8766479,8.8432617,1.7422485,10.270874,5.9400635C45.828125,35.0801392,46.255249,34.9483032,46.6784668,34.8082886z"
	/>
<path d="M47.9672852,36.4897461c-1.0258789,0.3618164-2.0234375,0.6611328-3.0239258,0.9111328
	c-1.0073242,0.2646484-2.1015625,0.503418-3.3325195,0.7260742c-2.8618164,0.5205078-6.0117188,0.8613281-9.3608398,1.0126953
	c-0.6567383,0.0336914-1.3276367,0.0507812-2.0068359,0.0673828c-0.5922852,0.0175781-1.1972656,0.0258789-1.8017578,0.0258789
	c-0.5419922,0-1.0844727-0.0083008-1.6176758-0.0170898c-0.4677734-0.0087891-0.9248047-0.0175781-1.3730469-0.0429688
	c-0.6757812-0.0161133-1.3754883-0.0498047-2.0664062-0.0927734c-3.375-0.2026367-6.5141602-0.6035156-9.3291016-1.1923828
	c-1.2626953-0.2617188-2.3691406-0.5341797-3.3808594-0.8330078c-1.2050781-0.3476562-2.3286133-0.7460938-3.3334961-1.1816406
	c-1.2244873-0.5324707-2.2233887-1.1069336-3.0007324-1.7197876c0.0015869,0.4060059,0.0151978,0.8068237,0.0497437,1.2064819
	c0.2565308,0.989502,1.638916,2.0895996,3.8123169,3.0284424c1.137207,0.4941406,2.4389648,0.934082,3.8710938,1.3081055
	c4.4980469,1.2011719,10.309082,1.8618164,16.3681641,1.8618164c13.4869995,0,23.2619629-3.1865234,24.0453491-6.1893311
	l0.0155029-1.2209473c-1.0362549,0.8185425-2.43927,1.5715332-4.2371216,2.2325439L47.9672852,36.4897461z"/>
<path d="M28.1655273,24.8056641c-0.9882812,0.1967773-1.8354492,0.7773438-2.3818359,1.6342773
	c-0.0343018,0.0541992-0.059082,0.1097412-0.0900879,0.1644897c0.1896362,0.1233521,0.3765869,0.2490234,0.5534668,0.3799438
	c0.8252563,0.6135864,1.5604248,1.3166504,2.2042847,2.0932617c1.0761108-1.0026245,2.3168335-1.7973022,3.6710815-2.3589478
	C31.3933105,25.3058472,29.8044434,24.4899292,28.1655273,24.8056641z"/>
<path d="M21.8823242,22.7182617c0.1303711-0.1542969,0.2387695-0.2802734,0.3662109-0.4072266
	c1.265625-1.4121094,2.9663086-2.378418,4.8798828-2.7539062c3.3295898-0.6508789,6.7016602,0.590332,8.796875,3.2451172
	c0.7155762,0.8883667,1.232605,1.8851318,1.5594482,2.9597168c0.3956909,0.0172729,0.7919312,0.0526123,1.1879272,0.1116333
	c0.0154419-0.2020874,0.0435181-0.4006958,0.0843506-0.5968018c-0.1107178-0.3466187-0.230957-0.677063-0.3649292-0.9730835
	c-1.9213867-4.465332-6.7646484-7.0112305-11.5253906-6.0688477c-2.2895508,0.4462891-4.2993164,1.6132812-5.8139648,3.3754883
	c-0.6694336,0.7773438-1.2177734,1.6396484-1.6303711,2.5634766c-0.0136719,0.0307617-0.0292969,0.0610352-0.0463867,0.0908203
	c-0.0485229,0.1099243-0.0866699,0.2240601-0.1309814,0.3354492c0.4772339,0.0125122,0.944519,0.0628662,1.4083862,0.1304321
	C20.9709473,24.0142822,21.3811035,23.3394165,21.8823242,22.7182617z"/>
<path d="M15.3713379,36.0996704c2.2211304,0.4220581,4.6366577,0.7284546,7.2113647,0.9142456
	c0.0004272-0.0216064,0.0081177-0.0425415,0.0081177-0.064209c0-2.0180664-1.6455078-3.6601562-3.668457-3.6601562
	C17.2058105,33.2895508,15.7599487,34.4932861,15.3713379,36.0996704z"/>
<path d="M25.5322266,37.1748047c0.1347046,0.0075073,0.2609863,0.0072632,0.392334,0.012146
	c0.0026855-0.0806885,0.0187988-0.1557617,0.0187988-0.2372437c0-0.9316406-0.1816406-1.8325195-0.5405273-2.6767578
	c-0.0003052-0.0007935-0.0006104-0.0015869-0.0009155-0.0023804c-0.000061-0.0001221-0.000061-0.0002441-0.0001221-0.0003662
	c-0.010376-0.0249634-0.0197754-0.0499268-0.0282593-0.0753784c-1.0996094-2.574707-3.612793-4.2436523-6.4223633-4.2578125
	c-3.3364258,0-6.1358643,2.2873535-6.8535767,5.4381714c0.4161987,0.1105957,0.8519287,0.2178955,1.3088989,0.3228149
	c0.5759888-2.5174561,2.8373413-4.4084473,5.5158691-4.4084473c3.1254883,0,5.668457,2.5390625,5.668457,5.6601562
	c0,0.0609741-0.0094604,0.12146-0.0114746,0.182373C24.8971558,37.1462402,25.2109985,37.166748,25.5322266,37.1748047z"/>
<path d="M29.2797241,37.22052c0.0026245-0.0914307,0.0161743-0.178833,0.0161743-0.270813
	c0-0.8710938-0.1108398-1.7436523-0.3291016-2.5922852c-0.0048828-0.0200195-0.0092773-0.0395508-0.0131836-0.0595703
	c-0.296875-1.1264648-0.7802734-2.1845703-1.4365234-3.1464844c-0.6660156-0.9799805-1.4936523-1.8408203-2.4609375-2.5605469
	c-0.3378906-0.2495117-0.7114258-0.4873047-1.1079102-0.7045898c-0.9023438-0.5024414-1.8623047-0.8623047-2.8598633-1.0722656
	c-0.1289062-0.03125-0.2236328-0.0493164-0.3188477-0.0610352c-0.9711914-0.1762695-1.8964844-0.2094727-2.8164062-0.1225586
	c-0.8364258,0.0761719-1.6455078,0.2529297-2.4077148,0.5244141c-0.0253906,0.0092773-0.0512695,0.0170898-0.0771484,0.0239258
	c-1.7363281,0.612793-3.2783203,1.6816406-4.4677734,3.0966797c-0.0185547,0.027832-0.0380859,0.0541992-0.059082,0.0795898
	c-0.9692993,1.1671753-1.647522,2.5366821-2.0240479,3.9888306c0.4052124,0.1577148,0.8247681,0.3092041,1.2647095,0.4542236
	c0.9701538-3.9833374,4.5319214-6.8610229,8.7402954-6.8610229c3.6733398,0.0180664,6.9221191,2.1936035,8.3190918,5.5426025
	c0.0010986,0.0025635,0.0026855,0.0047607,0.0037231,0.0073242c0.0004272,0.0009766,0.0009766,0.0018311,0.0014038,0.0028076
	c0.0097656,0.0234375,0.019043,0.0478516,0.0268555,0.0717773c0.4448242,1.0727539,0.6699219,2.2119141,0.6699219,3.3881836
	c0,0.0928345-0.0081177,0.1836548-0.0108643,0.2758789C28.3826294,37.2285767,28.8292847,37.2259521,29.2797241,37.22052z"/>
</symbol>

<symbol viewBox="0 0 24 24" xmlns="http://www.w3.org/2000/svg" id="sale"><path d="M21.59,9.83A4.21,4.21,0,0,1,21.17,9,4.73,4.73,0,0,1,21,8.07a4.19,4.19,0,0,0-.64-2.16,4.15,4.15,0,0,0-1.87-1.28,4.36,4.36,0,0,1-.84-.43A4.55,4.55,0,0,1,17,3.54a4.29,4.29,0,0,0-1.81-1.4A4.19,4.19,0,0,0,13,2.21a4.24,4.24,0,0,1-1.94,0A4.19,4.19,0,0,0,8.8,2.14,4.29,4.29,0,0,0,7,3.54a4.55,4.55,0,0,1-.66.66,4.36,4.36,0,0,1-.84.43A4.15,4.15,0,0,0,3.62,5.91,4.19,4.19,0,0,0,3,8.07,4.73,4.73,0,0,1,2.83,9a4.21,4.21,0,0,1-.42.81A4.3,4.3,0,0,0,1.64,12a4.3,4.3,0,0,0,.77,2.17,4.21,4.21,0,0,1,.42.81,4.73,4.73,0,0,1,.15.95,4.19,4.19,0,0,0,.64,2.16,4.15,4.15,0,0,0,1.87,1.28,4.36,4.36,0,0,1,.84.43,4.55,4.55,0,0,1,.66.66,4.29,4.29,0,0,0,1.81,1.4,2.91,2.91,0,0,0,.87.13,6,6,0,0,0,1.36-.2,4.24,4.24,0,0,1,1.94,0,4.19,4.19,0,0,0,2.23.07A4.29,4.29,0,0,0,17,20.46a4.55,4.55,0,0,1,.66-.66,4.36,4.36,0,0,1,.84-.43,4.15,4.15,0,0,0,1.87-1.28A4.19,4.19,0,0,0,21,15.93a4.73,4.73,0,0,1,.15-.95,4.21,4.21,0,0,1,.42-.81A4.3,4.3,0,0,0,22.36,12,4.3,4.3,0,0,0,21.59,9.83ZM9.5,8A1.5,1.5,0,1,1,8,9.5,1.5,1.5,0,0,1,9.5,8Zm5,8A1.5,1.5,0,1,1,16,14.5,1.5,1.5,0,0,1,14.5,16Zm1.21-6.29-6,6a1,1,0,0,1-1.42,0,1,1,0,0,1,0-1.42l6-6a1,1,0,0,1,1.42,1.42Z" ></path></symbol>

<symbol version="1.1" id="sushi" xmlns="http://www.w3.org/2000/svg" xmlns:xlink="http://www.w3.org/1999/xlink" x="0px" y="0px"
	 viewBox="0 0 64 64" style="enable-background:new 0 0 64 64;" xml:space="preserve">
<path d="M57.0698242,38.3032227V38.067688l-0.1157227,0.0787964c-1.0200195,0.6850586-2.1967773,1.0546875-3.4077148,1.0717773
	l-3.3735352,0.0566406c-0.6704102,0.0112305-1.3457031,0.1884766-1.9526367,0.512207
	c-2.1855469,1.1826172-4.6577148,1.809082-7.1450195,1.809082c-1.5986328,0-3.1704102-0.25-4.6723633-0.7431641
	l-1.1831055-0.3803711c-0.9018555-0.2944336-1.8408203-0.4404297-2.7597656-0.4335938
	c-1.1411133,0.0126953-2.2373047,0.2368164-3.2666016,0.6660156L27.699707,41.328125
	c-0.0898438,0.0373535-0.1821899,0.0554199-0.2746582,0.0634155c-0.0158691,0.00177-0.0290527,0.0107422-0.045166,0.0117798
	c-0.3930664,0.0400391-0.8081055,0.0585938-1.3032227,0.0585938h-2.875c-0.0012817,0-0.0023804,0-0.0036621,0h-1.0974121v0.847168
	c0,5.5332031,4.4985352,10.0351562,10.027832,10.0351562h10.8930664
	C50.7675781,52.3442383,57.0698242,46.0454102,57.0698242,38.3032227z"/>
<path d="M9.8706055,26.6430664l1.6020508-0.6660156c2.3544922-0.9824219,4.9902344-1.0859375,7.4194336-0.2890625
	l1.184082,0.3803711c3.3442383,1.0981445,7.1235352,0.762207,10.2539062-0.9262695
	c0.8789062-0.4736328,1.8696289-0.7324219,2.8647461-0.7495117l0.8282471-0.0123291
	c1.8179932-0.5558472,3.7045288-0.9858398,5.6132812-1.2891846l1.5570068-1.0529785
	c1.1606445-0.7895508,1.8544922-2.1020508,1.8544922-3.5112305v-0.269043c0-0.7290039-0.1884766-1.4511719-0.5449219-2.0883789
	C42.140625,15.5273438,41.6347656,15.0078125,41,14.6279297c-0.8004761-0.4831543-1.6299438-0.9091187-2.4818726-1.2773438
	c0.6143188,0.7111816,1.3884888,1.8841553,1.6630249,3.5048828c0.4194336,2.4726562-0.6098633,4.4257812-1.0717773,5.1508789
	c-0.1904297,0.2988281-0.5136719,0.4624023-0.8442383,0.4624023c-0.184082,0-0.3696289-0.050293-0.5366211-0.1567383
	c-0.465332-0.296875-0.6025391-0.9150391-0.3056641-1.3803711c0.3374023-0.5297852,1.0893555-1.9545898,0.7866211-3.7421875
	c-0.2011719-1.1860352-0.7783203-2.0473633-1.2270508-2.5615234c-0.3637695-0.4160156-0.3208008-1.0473633,0.0952148-1.4106445
	c0.1569214-0.1370239,0.3461914-0.197876,0.5385132-0.2211914c-2.3208008-0.8762817-4.7857056-1.340332-7.2855835-1.340332H29.375
	c-4.2060547,0-8.3823242,0.6577148-12.4135742,1.9555664c-2.1719971,0.7047729-4.269104,1.5934448-6.2806396,2.6453857
	c0.3389893-0.0665894,0.7014771,0.0288086,0.9447021,0.3077393c0.6181641,0.7070312,1.4135742,1.8959961,1.6928711,3.5424805
	c0.4194336,2.4731445-0.6098633,4.4262695-1.0717773,5.1513672c-0.1904297,0.2988281-0.5136719,0.4624023-0.8442383,0.4624023
	c-0.184082,0-0.3696289-0.050293-0.5366211-0.1567383c-0.465332-0.296875-0.6025391-0.9150391-0.3056641-1.3803711
	c0.3374023-0.5297852,1.0893555-1.9545898,0.7866211-3.7421875c-0.2016602-1.1865234-0.7788086-2.0478516-1.2270508-2.5615234
	c-0.3466797-0.3964233-0.3131104-0.9821167,0.0498047-1.3513184c-1.5239258,0.8248901-2.9983521,1.7421875-4.409668,2.7595215
	c-0.5112305,0.3696289-0.9394531,0.8525391-1.2363281,1.3959961c-0.3046875,0.5556641-0.4829102,1.1748047-0.5161133,1.7900391
	c-0.0600586,1.0620117,0.2666016,2.0908203,0.9189453,2.8989258C6.1240234,26.8706055,8.1079102,27.3793945,9.8706055,26.6430664z
	 M28.0595703,13.6811523c0.4160156-0.3632812,1.0478516-0.3208008,1.4106445,0.0952148
	c0.6181641,0.7070312,1.4135742,1.8959961,1.6928711,3.5424805c0.4194336,2.4726562-0.6098633,4.4257812-1.0717773,5.1508789
	c-0.1904297,0.2988281-0.5136719,0.4624023-0.8442383,0.4624023c-0.184082,0-0.3696289-0.050293-0.5366211-0.1567383
	c-0.465332-0.296875-0.6025391-0.9150391-0.3056641-1.3803711c0.3374023-0.5297852,1.0893555-1.9545898,0.7866211-3.7416992
	c-0.2016602-1.1865234-0.7788086-2.0478516-1.2270508-2.5615234C27.6005859,14.6757812,27.6435547,14.0444336,28.0595703,13.6811523
	z M18.5166016,15.043457c0.4165039-0.3637695,1.0473633-0.3203125,1.4106445,0.0952148
	c0.6186523,0.7075195,1.4140625,1.8969727,1.6928711,3.5429688c0.4194336,2.4731445-0.609375,4.4257812-1.0712891,5.1508789
	c-0.1904297,0.2988281-0.5136719,0.4624023-0.8442383,0.4624023c-0.184082,0-0.3696289-0.050293-0.5366211-0.1567383
	c-0.465332-0.296875-0.6025391-0.9150391-0.3056641-1.3803711c0.3374023-0.5297852,1.0893555-1.9541016,0.7861328-3.7421875
	c-0.2011719-1.1860352-0.7783203-2.0473633-1.2270508-2.5615234C18.0576172,16.0380859,18.1005859,15.4067383,18.5166016,15.043457z
	"/>
<path d="M40.2016602,25.0185547c-1.9692383,0.3012695-3.8925781,0.7426758-5.7382812,1.3149414
	c-0.0219727,0.0068359-0.043457,0.0126953-0.0654297,0.0180664l-0.496582,0.1523438
	c-2.1668091,0.6987305-4.2633667,1.5847778-6.2770996,2.6369019c0.3408813-0.0689087,0.7061157,0.0264282,0.9504395,0.3069458
	c0.6181641,0.7084961,1.4130859,1.8979492,1.6923828,3.5429688c0.4194336,2.4726562-0.6098633,4.4257812-1.0717773,5.1508789
	c-0.1904297,0.2988281-0.5136719,0.4624023-0.8442383,0.4624023c-0.184082,0-0.3696289-0.050293-0.5366211-0.1567383
	c-0.465332-0.296875-0.6025391-0.9150391-0.3056641-1.3808594c0.3374023-0.5292969,1.0893555-1.9541016,0.7866211-3.7412109
	c-0.2011719-1.1855469-0.7788086-2.0478516-1.2275391-2.5620117c-0.3471069-0.3979492-0.3129272-0.9859619,0.0526733-1.3549805
	c-1.5245972,0.8242798-3.0013428,1.7424927-4.4159546,2.762207c-0.5014648,0.3623047-0.9306641,0.8476562-1.2402344,1.4033203
	c-0.300293,0.5478516-0.4785156,1.1689453-0.512207,1.7895508c-0.0605469,1.0791016,0.2587891,2.0795898,0.9238281,2.8955078
	c0.4211426,0.5175171,0.9560547,0.9262695,1.5488892,1.203125h2.6517944c0.3433838,0,0.6802368-0.015686,1.0130005-0.0460815
	l1.3341675-0.5564575c1.2670898-0.5283203,2.6147461-0.8041992,4.0043945-0.8203125
	c0.0032349,0,0.0062866,0.0003662,0.0095215,0.0003662c0.0006104,0,0.0010986-0.0003662,0.001709-0.0003662h0.0073242
	c0.0014038,0,0.0026245,0.0007935,0.0040283,0.0007935c1.1643066-0.0001831,2.2907104,0.1724243,3.3851318,0.5299683
	l1.1850586,0.3808594c3.3383789,1.0976562,7.1333008,0.7636719,10.2524414-0.925293
	c0.890625-0.4750977,1.8798828-0.7338867,2.8662109-0.7504883l3.3764648-0.0566406
	c0.824707-0.0112305,1.6254883-0.2636719,2.3183594-0.7290039l2.2998047-1.565918
	C59.3037109,34.1279297,60,32.8149414,60,31.4091797v-0.269043c0-0.7353516-0.1855469-1.4370117-0.5507812-2.0854492
	c-0.3544922-0.6337891-0.8730469-1.1674805-1.5-1.5463867c-0.800415-0.4832153-1.6306152-0.9094238-2.4842529-1.2774048
	c0.6141968,0.7123413,1.3900146,1.8865356,1.664917,3.5083618c0.4194336,2.4726562-0.609375,4.425293-1.0712891,5.1503906
	c-0.1904297,0.2988281-0.5136719,0.4624023-0.8442383,0.4624023c-0.184082,0-0.3696289-0.050293-0.5366211-0.1567383
	c-0.465332-0.296875-0.6025391-0.9150391-0.3056641-1.3808594c0.3374023-0.5292969,1.0893555-1.9536133,0.7861328-3.7412109
	c-0.2011719-1.1850586-0.7783203-2.0473633-1.2275391-2.5620117c-0.3632812-0.4165039-0.3203125-1.0478516,0.0957031-1.4111328
	c0.1577759-0.137146,0.3474121-0.197937,0.539917-0.2210693c-2.3163452-0.8720703-4.7808228-1.3341064-7.2835693-1.3341064
	h-0.9555664c-1.6850586,0-3.3950195,0.109375-5.0825195,0.324707
	C40.8842773,24.9116211,40.5429688,24.9580078,40.2016602,25.0185547z M37.4975586,36.7158203
	c-0.1904297,0.2988281-0.5136719,0.4624023-0.8442383,0.4624023c-0.184082,0-0.3696289-0.050293-0.5366211-0.1567383
	c-0.465332-0.296875-0.6025391-0.9150391-0.3056641-1.3808594c0.3374023-0.5292969,1.0893555-1.9536133,0.7861328-3.7412109
	c-0.2006836-1.1845703-0.7783203-2.0473633-1.2275391-2.5625c-0.362793-0.4165039-0.3193359-1.0483398,0.0966797-1.4111328
	c0.4169922-0.362793,1.0488281-0.3188477,1.4111328,0.0966797c0.6181641,0.7094727,1.4130859,1.8994141,1.6914062,3.5429688
	C38.9882812,34.0380859,37.9594727,35.9907227,37.4975586,36.7158203z M45.0083008,26.5644531
	c0.4160156-0.3642578,1.0478516-0.3208008,1.4106445,0.0952148c0.6181641,0.7070312,1.4135742,1.8964844,1.6928711,3.5429688
	c0.4194336,2.4726562-0.6098633,4.4257812-1.0717773,5.1508789c-0.1904297,0.2988281-0.5136719,0.4624023-0.8442383,0.4624023
	c-0.184082,0-0.3696289-0.050293-0.5366211-0.1567383c-0.465332-0.296875-0.6025391-0.9150391-0.3056641-1.3808594
	c0.3374023-0.5292969,1.0893555-1.9541016,0.7866211-3.7412109c-0.2016602-1.1870117-0.7788086-2.0483398-1.2270508-2.5620117
	C44.5493164,27.559082,44.5922852,26.9277344,45.0083008,26.5644531z"/>
<path d="M21.5341797,30.5488281c0.9164429-0.6607056,1.8570557-1.2819824,2.8188477-1.8651123
	c-1.6607666,0.0291138-3.3216553-0.1966553-4.8950195-0.7130127l-1.1835938-0.3803711
	c-1.9785156-0.6484375-4.1201172-0.565918-6.0327148,0.2329102l-1.6010742,0.6655273
	c-0.7919922,0.331543-1.6152344,0.4916992-2.4262695,0.4916992c-1.0773315,0.0003052-2.130249-0.289917-3.065918-0.8294678
	v1.2689209c0,5.5371094,4.4985352,10.0419922,10.027832,10.0419922h5.1087036
	c-0.9407959-1.1826782-1.4163818-2.6721191-1.329895-4.2089844c0.0498047-0.9150391,0.3120117-1.8310547,0.7587891-2.6469727
	C20.168457,31.7905273,20.796875,31.081543,21.5341797,30.5488281z"/>
</symbol>

<symbol id="cart"  xmlns="http://www.w3.org/2000/svg" viewBox="0 0 25 25"><path id="Shopping_Cart" data-name="Shopping Cart" d="M24.71,5.49a1.24,1.24,0,0,0-1-.47L6.4,5,5.63,1.93A1.25,1.25,0,0,0,4.42,1H0V2H4.42a.25.25,0,0,1,.24.18L8.37,17.07A1.25,1.25,0,0,0,9.58,18h12a1.23,1.23,0,0,0,1.22-1L25,6.55A1.24,1.24,0,0,0,24.71,5.49ZM13,21a2,2,0,1,1-2-2A2,2,0,0,1,13,21Zm9,0a2,2,0,1,1-2-2A2,2,0,0,1,22,21Z" /></symbol>

<symbol version="1.1" id="maki" xmlns="http://www.w3.org/2000/svg" xmlns:xlink="http://www.w3.org/1999/xlink" x="0px" y="0px"
	 viewBox="0 0 32 32" style="enable-background:new 0 0 32 32;" xml:space="preserve">
	<path d="M10,18h4c0.6,0,1-0.4,1-1v-4c0-0.6-0.4-1-1-1h-4c-0.6,0-1,0.4-1,1v4C9,17.6,9.4,18,10,18z"/>
	<path d="M20,2c-5.6,0-10,2.6-10,6c0,0.4,0.1,0.7,0.2,1.1C5.5,9.6,2,12,2,15v9c0,3.4,4.4,6,10,6s10-2.6,10-6v-1.1
		c4.7-0.5,8-2.9,8-5.9V8C30,4.6,25.6,2,20,2z M20,4c4.7,0,8,2.1,8,4c0,1.8-2.9,3.8-7.3,4c-0.3-0.4-0.7-0.7-1.2-1H22c0.6,0,1-0.4,1-1
		V6c0-0.6-0.4-1-1-1h-4c-0.6,0-1,0.4-1,1v3.8C15.6,9.3,14,9,12.3,9C12.1,8.7,12,8.3,12,8C12,6.1,15.3,4,20,4z M12,11
		c4.7,0,8,2.1,8,4s-3.3,4-8,4s-8-2.1-8-4S7.3,11,12,11z"/>
</symbol>


<symbol version="1.1" id="set" xmlns="http://www.w3.org/2000/svg" xmlns:xlink="http://www.w3.org/1999/xlink" x="0px" y="0px"
	 viewBox="0 0 64 64" style="enable-background:new 0 0 64 64;" xml:space="preserve">
<path d="M24.7724609,38.1079102H12.984375h-0.0498047c-1.6142578,0-2.9267578,1.3129883-2.9267578,2.9267578v5.4306641h17.6914062
	V41.034668C27.6992188,39.4208984,26.3867188,38.1079102,24.7724609,38.1079102z M16.8837891,41.2583008l-3.7548828,3.7548828
	c-0.1953125,0.1953125-0.4511719,0.2929688-0.7070312,0.2929688s-0.5117188-0.0976562-0.7070312-0.2929688
	c-0.390625-0.390625-0.390625-1.0234375,0-1.4140625l3.7548828-3.7548828c0.390625-0.390625,1.0234375-0.390625,1.4140625,0
	S17.2744141,40.8676758,16.8837891,41.2583008z M22.7324219,41.2583008l-3.7548828,3.7548828
	c-0.1953125,0.1953125-0.4511719,0.2929688-0.7070312,0.2929688s-0.5117188-0.0976562-0.7070312-0.2929688
	c-0.390625-0.390625-0.390625-1.0234375,0-1.4140625l3.7548828-3.7548828c0.390625-0.390625,1.0234375-0.390625,1.4140625,0
	S23.1230469,40.8676758,22.7324219,41.2583008z"/>
<path d="M44.9863281,22.309082c0.9248047,0,1.6767578-0.7519531,1.6767578-1.6762695s-0.7519531-1.6762695-1.6767578-1.6762695
	c-0.9238281,0-1.6757812,0.7519531-1.6757812,1.6762695S44.0625,22.309082,44.9863281,22.309082z"/>
<path d="M52.5291138,21.8215332c0.3087158,0.3069458,0.7304077,0.4875488,1.1779175,0.4875488
	c0.9228516,0,1.6728516-0.7504883,1.6728516-1.6733398c0-0.9267578-0.75-1.6806641-1.6728516-1.6806641
	c-0.4478149,0-0.8699341,0.1807861-1.1787109,0.4881592c0.1307983,0.3779297,0.2070312,0.7808228,0.2070312,1.1925049
	C52.7353516,21.045166,52.6601562,21.4441528,52.5291138,21.8215332z"/>
<path d="M48.3319092,22.1394653c0.2253418,0.1087646,0.4732056,0.1696167,0.7296143,0.1696167
	c0.6025391,0,1.15625-0.3237305,1.4453125-0.8442383c0.1542969-0.2612305,0.2285156-0.5385742,0.2285156-0.8291016
	c0-0.2949219-0.0732422-0.5698242-0.2177734-0.8173828c-0.2998047-0.5395508-0.8535156-0.8632812-1.4560547-0.8632812
	c-0.2566528,0-0.5046997,0.0610962-0.7302246,0.1699829c0.2089233,0.4613037,0.3317871,0.9692383,0.3317871,1.5077515
	C48.6630859,21.1708984,48.5405273,21.6784668,48.3319092,22.1394653z"/>
<path d="M28.7480469,27.75H17.6630859h-0.7519531c-1.6142578,0-2.9267578,1.3129883-2.9267578,2.9267578v5.4311523h10.7880859
	h6.9023438v-5.4311523C31.6748047,29.0629883,30.3623047,27.75,28.7480469,27.75z M21.6855469,30.8295898l-3.7548828,3.7548828
	c-0.1953125,0.1953125-0.4511719,0.2929688-0.7070312,0.2929688s-0.5117188-0.0976562-0.7070312-0.2929688
	c-0.390625-0.390625-0.390625-1.0234375,0-1.4140625l3.7548828-3.7548828c0.390625-0.390625,1.0234375-0.390625,1.4140625,0
	S22.0761719,30.4389648,21.6855469,30.8295898z M27.5341797,30.8295898l-3.7548828,3.7548828
	c-0.1953125,0.1953125-0.4511719,0.2929688-0.7070312,0.2929688s-0.5117188-0.0976562-0.7070312-0.2929688
	c-0.390625-0.390625-0.390625-1.0234375,0-1.4140625l3.7548828-3.7548828c0.390625-0.390625,1.0234375-0.390625,1.4140625,0
	S27.9248047,30.4389648,27.5341797,30.8295898z"/>
<path d="M33.4277344,17.3920898H21.5898438c-1.6142578,0-2.9267578,1.3129883-2.9267578,2.9272461V25.75h10.0849609h7.6064453
	v-5.4306641C36.3544922,18.7050781,35.0419922,17.3920898,33.4277344,17.3920898z M27.5341797,20.4008789l-3.7548828,3.7548828
	c-0.1953125,0.1953125-0.4511719,0.2929688-0.7070312,0.2929688s-0.5117188-0.0976562-0.7070312-0.2929688
	c-0.390625-0.390625-0.390625-1.0234375,0-1.4140625l3.7548828-3.7548828c0.390625-0.390625,1.0234375-0.390625,1.4140625,0
	S27.9248047,20.0102539,27.5341797,20.4008789z M33.3818359,20.4008789l-3.7539062,3.7548828
	c-0.1953125,0.1953125-0.4511719,0.2929688-0.7070312,0.2929688s-0.5117188-0.0976562-0.7070312-0.2929688
	c-0.390625-0.3901367-0.390625-1.0234375,0-1.4140625l3.7539062-3.7548828c0.390625-0.390625,1.0234375-0.390625,1.4140625,0
	C33.7724609,19.3769531,33.7724609,20.0102539,33.3818359,20.4008789z"/>
<path d="M48.1103516,31.2368164c-4.359375,0-7.90625,3.546875-7.90625,7.90625c0,4.3598633,3.546875,7.9067383,7.90625,7.9067383
	s7.90625-3.546875,7.90625-7.9067383C56.0166016,34.7836914,52.4697266,31.2368164,48.1103516,31.2368164z M48.1103516,44.4970703
	c-2.9521484,0-5.3544922-2.4013672-5.3544922-5.3535156s2.4023438-5.3535156,5.3544922-5.3535156
	s5.3535156,2.4013672,5.3535156,5.3535156S51.0625,44.4970703,48.1103516,44.4970703z"/>
<path d="M48.1103516,35.7900391c-1.8496094,0-3.3544922,1.5043945-3.3544922,3.3535156s1.5048828,3.3535156,3.3544922,3.3535156
	s3.3535156-1.5043945,3.3535156-3.3535156S49.9599609,35.7900391,48.1103516,35.7900391z"/>
<path d="M59,46.5976562V17.4023438c0-1.8022461-1.4658203-3.2680664-3.2685547-3.2680664H8.2685547
	C6.4658203,14.1342773,5,15.6000977,5,17.4023438v29.1953125c0,1.8022461,1.4658203,3.2680664,3.2685547,3.2680664h47.4628906
	C57.5341797,49.8657227,59,48.3999023,59,46.5976562z M44.9863281,16.956543c0.7583618,0,1.463501,0.2311401,2.0495605,0.6260986
	c0.5970459-0.395874,1.2940063-0.6275635,2.0256348-0.6275635c0.8627319,0,1.6782837,0.3067017,2.3218994,0.8358154
	c0.6459351-0.5289307,1.4622803-0.8358154,2.3236084-0.8358154c2.0253906,0,3.6728516,1.6513672,3.6728516,3.6806641
	c0,2.0253906-1.6474609,3.6733398-3.6728516,3.6733398c-0.8603516,0-1.6759644-0.3061523-2.3215332-0.8339844
	c-0.640564,0.5250244-1.458374,0.8339844-2.3239746,0.8339844c-0.7311401,0-1.4275513-0.2314453-2.024353-0.6268311
	c-0.5863037,0.3954468-1.2919922,0.6268311-2.0508423,0.6268311c-2.0263672,0-3.6757812-1.6489258-3.6757812-3.6762695
	S42.9599609,16.956543,44.9863281,16.956543z M7.1875,25.0625c-0.5527344,0-1-0.4477539-1-1v-4.9130859
	c0-2.0717773,1.6855469-3.7573242,3.7568359-3.7573242H13.46875c0.5527344,0,1,0.4477539,1,1s-0.4472656,1-1,1H9.9443359
	c-0.96875,0-1.7568359,0.7880859-1.7568359,1.7573242V24.0625C8.1875,24.6147461,7.7402344,25.0625,7.1875,25.0625z
	 M37.3544922,27.75h-4.6658325c0.6113281,0.8206787,0.986145,1.8269653,0.986145,2.9267578v6.4311523c0,0.5522461-0.4472656,1-1,1
	h-3.961731c0.6113281,0.8206787,0.986145,1.8269653,0.986145,2.9267578v6.4306641c0,0.5522461-0.4472656,1-1,1H9.0078125
	c-0.5527344,0-1-0.4477539-1-1V41.034668c0-2.3914185,1.713501-4.3861694,3.9765625-4.8306885v-5.5272217
	c0-2.6318359,2.0792236-4.7694092,4.6787109-4.9016724v-5.4557495c0-2.7167969,2.2099609-4.9272461,4.9267578-4.9272461h11.8378906
	c2.7167969,0,4.9267578,2.2104492,4.9267578,4.9272461V26.75C38.3544922,27.3022461,37.9072266,27.75,37.3544922,27.75z
	 M48.1103516,49.0498047c-5.4619141,0-9.90625-4.4443359-9.90625-9.9067383s4.4443359-9.90625,9.90625-9.90625
	s9.90625,4.4438477,9.90625,9.90625S53.5722656,49.0498047,48.1103516,49.0498047z"/>
</symbol>

<symbol version="1.1" id="nav" xmlns="http://www.w3.org/2000/svg" xmlns:xlink="http://www.w3.org/1999/xlink" x="0px" y="0px"
	 viewBox="0 0 800 761.9" style="enable-background:new 0 0 800 761.9;" xml:space="preserve">

<path d="M680,419H560c-66.3,0-120,51.2-120,114.3v114.3
	c0,63.1,53.7,114.3,120,114.3h120c66.3,0,120-51.2,120-114.3V533.3C800,470.2,746.3,419,680,419 M240,419H120
	C53.7,419,0,470.2,0,533.3v114.3c0,63.1,53.7,114.3,120,114.3h120c66.3,0,120-51.2,120-114.3V533.3C360,470.2,306.3,419,240,419
	 M680,0H560c-66.3,0-120,51.2-120,114.3v114.3c0,63.1,53.7,114.3,120,114.3h120c66.3,0,120-51.2,120-114.3V114.3
	C800,51.2,746.3,0,680,0 M360,114.3v114.3c0,63.1-53.7,114.3-120,114.3H120c-66.3,0-120-51.2-120-114.3V114.3C0,51.2,53.7,0,120,0
	h120C306.3,0,360,51.2,360,114.3"/>
</symbol>

<symbol id="phone"  viewBox="0 0 32 32" version="1.1" xmlns="http://www.w3.org/2000/svg">
<path d="M21.999 4h-12c-1.104 0-1.999 0.896-1.999 2v20c0 1.104 0.895 2 1.999 2h12c1.105 0 2.001-0.896 2.001-2v-20c0-1.104-0.896-2-2.001-2zM13 5h5l0.062 1h-5.062v-1zM15.979 26.5c-0.552 0-1-0.447-1-1s0.448-1 1-1c0.553 0 1 0.447 1 1s-0.448 1-1 1zM21.999 23h-12l0.021-16h11.979v16z"></path>
</symbol>

<symbol version="1.1" id="cross" xmlns="http://www.w3.org/2000/svg" xmlns:xlink="http://www.w3.org/1999/xlink" x="0px" y="0px"
	 viewBox="0 0 60.963 60.842" style="enable-background:new 0 0 60.963 60.842;" xml:space="preserve">
<path d="M59.595,52.861L37.094,30.359L59.473,7.98c1.825-1.826,1.825-4.786,0-6.611
	c-1.826-1.825-4.785-1.825-6.611,0L30.483,23.748L8.105,1.369c-1.826-1.825-4.785-1.825-6.611,0c-1.826,1.826-1.826,4.786,0,6.611
	l22.378,22.379L1.369,52.861c-1.826,1.826-1.826,4.785,0,6.611c0.913,0.913,2.109,1.369,3.306,1.369s2.393-0.456,3.306-1.369
	l22.502-22.502l22.501,22.502c0.913,0.913,2.109,1.369,3.306,1.369s2.393-0.456,3.306-1.369
	C61.42,57.647,61.42,54.687,59.595,52.861z"/>
</symbol>

</svg>